<?xml version="1.0" encoding="UTF-8"?>
<svg width="340px" height="104px" viewBox="0 0 340 104" version="1.1" xmlns="http://www.w3.org/2000/svg" xmlns:xlink="http://www.w3.org/1999/xlink">
    <!-- Generator: Sketch 57.1 (83088) - https://sketch.com -->
    <title>Amathon Logo Inversed Copy</title>
    <desc>Created with Sketch.</desc>
    <g id="Amathon-Logo-Inversed-Copy" stroke="none" stroke-width="1" fill="none" fill-rule="evenodd">
        <rect fill="#000000" x="0" y="0" width="340" height="104"></rect>
        <path d="M117.552,53 L116.272,49.32 L107.728,49.32 L106.448,53 L102.16,53 L110.256,30.6 L113.936,30.6 L122,53 L117.552,53 Z M111.984,37 L108.944,45.736 L115.056,45.736 L112.048,37 L111.984,37 Z M124.4,53 L124.4,36.04 L128.208,36.04 L128.208,37.672 L128.272,37.672 C128.656002,37.0746637 129.215996,36.5733354 129.952,36.168 C130.688004,35.7626646 131.493329,35.56 132.368,35.56 C133.264004,35.56 134.106663,35.7679979 134.896,36.184 C135.685337,36.6000021 136.282665,37.1386634 136.688,37.8 L136.752,37.8 C137.178669,37.1386634 137.786663,36.6000021 138.576,36.184 C139.365337,35.7679979 140.229329,35.56 141.168,35.56 C143.194677,35.56 144.799994,36.093328 145.984,37.16 C147.168006,38.226672 147.76,39.6346579 147.76,41.384 L147.76,53 L143.952,53 L143.952,42.248 C143.952,41.4159958 143.712002,40.733336 143.232,40.2 C142.751998,39.666664 142.010672,39.4 141.008,39.4 C140.069329,39.4 139.349336,39.6453309 138.848,40.136 C138.346664,40.6266691 138.096,41.2559962 138.096,42.024 L138.096,53 L134.288,53 L134.288,42.248 C134.288,41.4373293 134.032003,40.7600027 133.52,40.216 C133.007997,39.6719973 132.282671,39.4 131.344,39.4 C130.383995,39.4 129.658669,39.6453309 129.168,40.136 C128.677331,40.6266691 128.432,41.2559962 128.432,42.024 L128.432,53 L124.4,53 Z M161.744,53 L161.744,51.368 L161.68,51.368 L161.52,51.608 C161.456,51.7040005 161.296001,51.8693322 161.04,52.104 C160.783999,52.3386678 160.496002,52.551999 160.176,52.744 C159.855998,52.936001 159.418669,53.1066659 158.864,53.256 C158.309331,53.4053341 157.712003,53.48 157.072,53.48 C155.02399,53.48 153.493338,52.9946715 152.48,52.024 C151.466662,51.0533285 150.96,49.864007 150.96,48.456 C150.96,46.9839926 151.397329,45.8640038 152.272,45.096 C153.146671,44.3279962 154.629323,43.6880026 156.72,43.176 C158.661343,42.7066643 159.877331,42.3333347 160.368,42.056 C160.858669,41.7786653 161.104,41.3840026 161.104,40.872 C161.104,40.3599974 160.864002,39.933335 160.384,39.592 C159.903998,39.250665 159.184005,39.08 158.224,39.08 C157.093328,39.08 156.282669,39.3306642 155.792,39.832 C155.301331,40.3333358 154.917335,41.0106624 154.64,41.864 L151.184,40.424 C151.589335,38.9946595 152.378661,37.8266712 153.552,36.92 C154.725339,36.0133288 156.261324,35.56 158.16,35.56 C160.229344,35.56 161.925327,36.1039946 163.248,37.192 C164.570673,38.2800054 165.232,39.9653219 165.232,42.248 L165.232,53 L161.744,53 Z M157.552,46.056 C156.485328,46.3120013 155.786668,46.6159982 155.456,46.968 C155.125332,47.3200018 154.96,47.7199978 154.96,48.168 C154.96,49.3200058 155.791992,49.896 157.456,49.896 C158.714673,49.896 159.658664,49.6560024 160.288,49.176 C160.917336,48.6959976 161.232,48.1040035 161.232,47.4 L161.232,44.456 L161.168,44.456 C161.082666,44.6266675 160.992,44.7599995 160.896,44.856 C160.8,44.9520005 160.474669,45.1119989 159.92,45.336 C159.365331,45.5600011 158.576005,45.7999987 157.552,46.056 Z M170.256,46.952 L170.256,39.56 L167.632,39.56 L167.632,36.04 L170.352,36.04 L170.352,31.88 L174.288,31.88 L174.288,36.04 L178.576,36.04 L178.576,39.56 L174.352,39.56 L174.352,46.568 C174.352,47.4640045 174.501332,48.0933315 174.8,48.456 C175.098668,48.8186685 175.706662,49 176.624,49 L178,49 L178,53 L176.24,53 C173.957322,53 172.389338,52.5200048 171.536,51.56 C170.682662,50.5999952 170.256,49.0640106 170.256,46.952 Z M181.776,53 L181.776,29.64 L185.936,29.64 L185.936,37.672 L186,37.672 C186.341335,37.1173306 186.906663,36.6266688 187.696,36.2 C188.485337,35.7733312 189.295996,35.56 190.128,35.56 C191.941342,35.56 193.381328,36.1146611 194.448,37.224 C195.514672,38.3333389 196.048,39.8266573 196.048,41.704 L196.048,53 L191.888,53 L191.888,42.632 C191.888,41.6933286 191.637336,40.920003 191.136,40.312 C190.634664,39.703997 189.882672,39.4 188.88,39.4 C187.919995,39.4 187.189336,39.6719973 186.688,40.216 C186.186664,40.7600027 185.936,41.469329 185.936,42.344 L185.936,53 L181.776,53 Z M204.368,48.392 C205.05067,49.2880045 205.989327,49.736 207.184,49.736 C208.378673,49.736 209.31733,49.2826712 210,48.376 C210.68267,47.4693288 211.024,46.1840083 211.024,44.52 C211.024,42.8559917 210.677337,41.5706712 209.984,40.664 C209.290663,39.7573288 208.357339,39.304 207.184,39.304 C206.010661,39.304 205.077337,39.7519955 204.384,40.648 C203.690663,41.5440045 203.344,42.8346582 203.344,44.52 C203.344,46.2053418 203.68533,47.4959955 204.368,48.392 Z M212.88,51.112 C211.386659,52.6906746 209.488012,53.48 207.184,53.48 C204.879988,53.48 202.981341,52.6906746 201.488,51.112 C199.994659,49.5333254 199.248,47.3360141 199.248,44.52 C199.248,41.7466528 200.015992,39.56 201.552,37.96 C203.088008,36.359992 204.965322,35.56 207.184,35.56 C209.402678,35.56 211.279992,36.359992 212.816,37.96 C214.352008,39.56 215.12,41.7466528 215.12,44.52 C215.12,47.3360141 214.373341,49.5333254 212.88,51.112 Z M218.48,53 L218.48,36.04 L222.48,36.04 L222.48,37.672 L222.544,37.672 C223.013336,37.0746637 223.653329,36.5733354 224.464,36.168 C225.274671,35.7626646 226.127996,35.56 227.024,35.56 C228.901343,35.56 230.373328,36.1199944 231.44,37.24 C232.506672,38.3600056 233.04,39.9119901 233.04,41.896 L233.04,53 L228.88,53 L228.88,42.92 C228.88,41.7466608 228.656002,40.8666696 228.208,40.28 C227.759998,39.6933304 226.992005,39.4 225.904,39.4 C224.879995,39.4 224.080003,39.6933304 223.504,40.28 C222.927997,40.8666696 222.64,41.6506618 222.64,42.632 L222.64,53 L218.48,53 Z M244.752,53 L244.752,49.768 C244.752,47.7199898 245.242662,46.12 246.224,44.968 C247.034671,44.0079952 248.719987,42.8880064 251.28,41.608 C251.429334,41.5439997 251.642665,41.4373341 251.92,41.288 C252.773338,40.8826646 253.386665,40.5680011 253.76,40.344 C254.133335,40.12 254.554664,39.8266685 255.024,39.464 C255.493336,39.1013315 255.813332,38.7120021 255.984,38.296 C256.154668,37.8799979 256.24,37.3946694 256.24,36.84 C256.24,36.0079958 255.909337,35.3200027 255.248,34.776 C254.586663,34.2319973 253.701339,33.96 252.592,33.96 C250.266655,33.96 248.954668,35.4106522 248.656,38.312 L244.56,37.768 C244.709334,35.3146544 245.503993,33.4266733 246.944,32.104 C248.384007,30.7813267 250.341321,30.12 252.816,30.12 C254.992011,30.12 256.789326,30.7439938 258.208,31.992 C259.626674,33.2400062 260.336,34.9519891 260.336,37.128 C260.336,38.0453379 260.176002,38.8826629 259.856,39.64 C259.535998,40.3973371 259.072003,41.0693304 258.464,41.656 C257.855997,42.2426696 257.248003,42.7333314 256.64,43.128 C256.031997,43.5226686 255.301338,43.9333312 254.448,44.36 C252.805325,45.1920042 251.712003,45.7679984 251.168,46.088 C250.623997,46.4080016 250.224001,46.7493315 249.968,47.112 C249.669332,47.5600022 249.52,48.1146634 249.52,48.776 L260.496,48.776 L260.496,53 L244.752,53 Z M277.936,50.536 C276.378659,52.4986765 274.288013,53.48 271.664,53.48 C269.039987,53.48 266.949341,52.4986765 265.392,50.536 C263.834659,48.5733235 263.056,45.5440205 263.056,41.448 C263.056,37.7359814 263.839992,34.9200096 265.408,33 C266.976008,31.0799904 269.06132,30.12 271.664,30.12 C274.26668,30.12 276.351992,31.0799904 277.92,33 C279.488008,34.9200096 280.272,37.7359814 280.272,41.448 C280.272,45.5440205 279.493341,48.5733235 277.936,50.536 Z M268.4,47.688 C269.104004,48.8826726 270.191993,49.48 271.664,49.48 C273.136007,49.48 274.218663,48.8826726 274.912,47.688 C275.605337,46.4933274 275.952,44.4133482 275.952,41.448 C275.952,38.8666538 275.59467,37.0000058 274.88,35.848 C274.16533,34.6959942 273.09334,34.12 271.664,34.12 C270.23466,34.12 269.16267,34.6959942 268.448,35.848 C267.73333,37.0000058 267.376,38.8666538 267.376,41.448 C267.376,44.4133482 267.71733,46.4933274 268.4,47.688 Z M287.984,53 L287.984,35.4 L283.152,38.44 L283.152,33.8 L288.304,30.6 L292.112,30.6 L292.112,53 L287.984,53 Z M298.512,47.944 L302.32,46.536 C302.874669,48.6053437 304.239989,49.64 306.416,49.64 C307.71734,49.64 308.746663,49.1013387 309.504,48.024 C310.261337,46.9466613 310.597334,45.2986778 310.512,43.08 L310.448,43.08 C310.298666,43.5706691 309.770671,44.1039971 308.864,44.68 C307.957329,45.2560029 306.725341,45.544 305.168,45.544 C303.24799,45.544 301.525341,44.8506736 300,43.464 C298.474659,42.0773264 297.712,40.2320115 297.712,37.928 C297.712,35.5599882 298.479992,33.6666738 300.016,32.248 C301.552008,30.8293262 303.439989,30.12 305.68,30.12 C306.853339,30.12 307.951995,30.3386645 308.976,30.776 C310.000005,31.2133355 310.943996,31.8853288 311.808,32.792 C312.672004,33.6986712 313.349331,34.9359922 313.84,36.504 C314.330669,38.0720078 314.576,39.8799898 314.576,41.928 C314.576,45.7680192 313.850674,48.6533237 312.4,50.584 C310.949326,52.5146763 308.901347,53.48 306.256,53.48 C305.039994,53.48 303.952005,53.3146683 302.992,52.984 C302.031995,52.6533317 301.25867,52.2000029 300.672,51.624 C300.08533,51.0479971 299.621335,50.4613363 299.28,49.864 C298.938665,49.2666637 298.682668,48.6266701 298.512,47.944 Z M305.84,41.832 C307.056006,41.832 308.02133,41.5226698 308.736,40.904 C309.45067,40.2853302 309.808,39.3893392 309.808,38.216 C309.808,36.957327 309.445337,35.9333373 308.72,35.144 C307.994663,34.3546627 306.992006,33.96 305.712,33.96 C304.559994,33.96 303.621337,34.3333296 302.896,35.08 C302.170663,35.8266704 301.808,36.7759942 301.808,37.928 C301.808,39.0800058 302.170663,40.018663 302.896,40.744 C303.621337,41.469337 304.60266,41.832 305.84,41.832 Z" id="Amathon2019" fill="#FFFFFF" fill-rule="nonzero"></path>
        <path d="M108.734,70.108 L110.694,70.542 C110.535333,71.6806724 110.120003,72.5766634 109.448,73.23 C108.775997,73.8833366 107.898672,74.21 106.816,74.21 C105.555994,74.21 104.531671,73.773671 103.743,72.901 C102.954329,72.028329 102.56,70.7100088 102.56,68.946 C102.56,67.3966589 102.977662,66.1833377 103.813,65.306 C104.648338,64.4286623 105.644661,63.99 106.802,63.99 C107.810005,63.99 108.66633,64.3049968 109.371,64.935 C110.07567,65.5650031 110.483999,66.4119947 110.596,67.476 L108.72,67.77 C108.636,67.1726637 108.440002,66.6850019 108.132,66.307 C107.823998,65.9289981 107.385336,65.74 106.816,65.74 C106.171997,65.74 105.626002,66.0199972 105.178,66.58 C104.729998,67.1400028 104.506,67.9286616 104.506,68.946 C104.506,70.1406726 104.722998,71.0249971 105.157,71.599 C105.591002,72.1730029 106.143997,72.46 106.816,72.46 C107.917339,72.46 108.556666,71.6760078 108.734,70.108 Z M112.164,74 L112.164,63.78 L114.054,63.78 L114.054,74 L112.164,74 Z M117.764,71.984 C118.062668,72.376002 118.473331,72.572 118.996,72.572 C119.518669,72.572 119.929332,72.3736686 120.228,71.977 C120.526668,71.5803313 120.676,71.0180036 120.676,70.29 C120.676,69.5619964 120.524335,68.9996687 120.221,68.603 C119.917665,68.2063313 119.509336,68.008 118.996,68.008 C118.482664,68.008 118.074335,68.203998 117.771,68.596 C117.467665,68.988002 117.316,69.552663 117.316,70.29 C117.316,71.027337 117.465332,71.591998 117.764,71.984 Z M121.488,73.174 C120.834663,73.8646701 120.004005,74.21 118.996,74.21 C117.987995,74.21 117.157337,73.8646701 116.504,73.174 C115.850663,72.4833299 115.524,71.5220062 115.524,70.29 C115.524,69.0766606 115.859997,68.1200035 116.532,67.42 C117.204003,66.7199965 118.025328,66.37 118.996,66.37 C119.966672,66.37 120.787997,66.7199965 121.46,67.42 C122.132003,68.1200035 122.468,69.0766606 122.468,70.29 C122.468,71.5220062 122.141337,72.4833299 121.488,73.174 Z M123.868,71.368 L123.868,66.58 L125.688,66.58 L125.688,71.172 C125.688,71.638669 125.776666,71.969999 125.954,72.166 C126.131334,72.362001 126.415998,72.46 126.808,72.46 C127.246669,72.46 127.601332,72.3456678 127.872,72.117 C128.142668,71.8883322 128.278,71.5266691 128.278,71.032 L128.278,66.58 L130.098,66.58 L130.098,74 L128.362,74 L128.362,73.286 L128.334,73.286 C127.876664,73.9020031 127.232671,74.21 126.402,74.21 C125.543329,74.21 124.906335,73.9533359 124.491,73.44 C124.075665,72.9266641 123.868,72.2360043 123.868,71.368 Z M136.664,70.962 L136.664,69.604 C136.664,69.1559978 136.521668,68.7780015 136.237,68.47 C135.952332,68.1619985 135.562669,68.008 135.068,68.008 C134.535997,68.008 134.123001,68.1993314 133.829,68.582 C133.534999,68.9646686 133.388,69.5339962 133.388,70.29 C133.388,71.0366704 133.534999,71.6036647 133.829,71.991 C134.123001,72.3783353 134.535997,72.572 135.068,72.572 C135.562669,72.572 135.952332,72.4156682 136.237,72.103 C136.521668,71.7903318 136.664,71.4100022 136.664,70.962 Z M136.776,74 L136.776,73.286 L136.748,73.286 C136.701333,73.3513337 136.633667,73.4353328 136.545,73.538 C136.456333,73.6406672 136.241668,73.7783325 135.901,73.951 C135.560332,74.1236675 135.189335,74.21 134.788,74.21 C133.807995,74.21 133.026336,73.8553369 132.443,73.146 C131.859664,72.4366631 131.568,71.4846726 131.568,70.29 C131.568,69.085994 131.88533,68.1316702 132.52,67.427 C133.15467,66.7223298 133.901329,66.37 134.76,66.37 C135.152002,66.37 135.504332,66.4469992 135.817,66.601 C136.129668,66.7550008 136.341999,66.9066659 136.454,67.056 L136.636,67.294 L136.664,67.294 L136.664,63.78 L138.484,63.78 L138.484,74 L136.776,74 Z M144.322,71.354 L144.322,68.12 L143.174,68.12 L143.174,66.58 L144.364,66.58 L144.364,64.76 L146.086,64.76 L146.086,66.58 L147.962,66.58 L147.962,68.12 L146.114,68.12 L146.114,71.186 C146.114,71.578002 146.179333,71.8533325 146.31,72.012 C146.440667,72.1706675 146.706665,72.25 147.108,72.25 L147.71,72.25 L147.71,74 L146.94,74 C145.941328,74 145.255335,73.7900021 144.882,73.37 C144.508665,72.9499979 144.322,72.2780046 144.322,71.354 Z M151.112,71.984 C151.410668,72.376002 151.821331,72.572 152.344,72.572 C152.866669,72.572 153.277332,72.3736686 153.576,71.977 C153.874668,71.5803313 154.024,71.0180036 154.024,70.29 C154.024,69.5619964 153.872335,68.9996687 153.569,68.603 C153.265665,68.2063313 152.857336,68.008 152.344,68.008 C151.830664,68.008 151.422335,68.203998 151.119,68.596 C150.815665,68.988002 150.664,69.552663 150.664,70.29 C150.664,71.027337 150.813332,71.591998 151.112,71.984 Z M154.836,73.174 C154.182663,73.8646701 153.352005,74.21 152.344,74.21 C151.335995,74.21 150.505337,73.8646701 149.852,73.174 C149.198663,72.4833299 148.872,71.5220062 148.872,70.29 C148.872,69.0766606 149.207997,68.1200035 149.88,67.42 C150.552003,66.7199965 151.373328,66.37 152.344,66.37 C153.314672,66.37 154.135997,66.7199965 154.808,67.42 C155.480003,68.1200035 155.816,69.0766606 155.816,70.29 C155.816,71.5220062 155.489337,72.4833299 154.836,73.174 Z M160.996,74 L160.996,64.2 L162.886,64.2 L162.886,74 L160.996,74 Z M165.056,74 L165.056,66.58 L166.806,66.58 L166.806,67.294 L166.834,67.294 C167.039334,67.0326654 167.319332,66.8133342 167.674,66.636 C168.028668,66.4586658 168.401998,66.37 168.794,66.37 C169.615337,66.37 170.259331,66.6149975 170.726,67.105 C171.192669,67.5950024 171.426,68.2739957 171.426,69.142 L171.426,74 L169.606,74 L169.606,69.59 C169.606,69.0766641 169.508001,68.6916679 169.312,68.435 C169.115999,68.178332 168.780002,68.05 168.304,68.05 C167.855998,68.05 167.506001,68.178332 167.254,68.435 C167.001999,68.6916679 166.876,69.0346645 166.876,69.464 L166.876,74 L165.056,74 Z M173.708,74 L173.708,68.12 L172.546,68.12 L172.546,66.58 L173.75,66.58 L173.75,65.53 C173.75,64.8953302 173.915665,64.4450013 174.247,64.179 C174.578335,63.9129987 175.06133,63.78 175.696,63.78 L176.872,63.78 L176.872,65.39 L176.074,65.39 C175.849999,65.39 175.693667,65.4343329 175.605,65.523 C175.516333,65.6116671 175.472,65.7633323 175.472,65.978 L175.472,66.58 L180.008,66.58 L180.008,74 L178.188,74 L178.188,68.12 L175.528,68.12 L175.528,74 L173.708,74 Z M178.188,65.502 L178.188,63.78 L180.008,63.78 L180.008,65.502 L178.188,65.502 Z M181.968,74 L181.968,66.58 L183.718,66.58 L183.718,67.294 L183.746,67.294 C183.951334,67.0326654 184.231332,66.8133342 184.586,66.636 C184.940668,66.4586658 185.313998,66.37 185.706,66.37 C186.527337,66.37 187.171331,66.6149975 187.638,67.105 C188.104669,67.5950024 188.338,68.2739957 188.338,69.142 L188.338,74 L186.518,74 L186.518,69.59 C186.518,69.0766641 186.420001,68.6916679 186.224,68.435 C186.027999,68.178332 185.692002,68.05 185.216,68.05 C184.767998,68.05 184.418001,68.178332 184.166,68.435 C183.913999,68.6916679 183.788,69.0346645 183.788,69.464 L183.788,74 L181.968,74 Z M190.228,74 L190.228,66.58 L192.048,66.58 L192.048,74 L190.228,74 Z M190.228,65.502 L190.228,63.78 L192.048,63.78 L192.048,65.502 L190.228,65.502 Z M194.386,71.354 L194.386,68.12 L193.238,68.12 L193.238,66.58 L194.428,66.58 L194.428,64.76 L196.15,64.76 L196.15,66.58 L198.026,66.58 L198.026,68.12 L196.178,68.12 L196.178,71.186 C196.178,71.578002 196.243333,71.8533325 196.374,72.012 C196.504667,72.1706675 196.770665,72.25 197.172,72.25 L197.774,72.25 L197.774,74 L197.004,74 C196.005328,74 195.319335,73.7900021 194.946,73.37 C194.572665,72.9499979 194.386,72.2780046 194.386,71.354 Z M200,77.15 L201.484,73.636 L198.516,66.58 L200.364,66.58 L202.282,71.606 L202.31,71.606 L204.228,66.58 L206.076,66.58 L201.806,77.15 L200,77.15 Z" id="CloudtoInfnity" fill="#FFFFFF" fill-rule="nonzero"></path>
        <g id="i-2" transform="translate(19.000000, 33.000000)" fill-rule="nonzero">
            <path d="M14.9970023,39 C24.8220987,39 32.1782882,27.6027336 34,24.5 C32.1782882,21.3972664 24.8208692,10 14.9970023,10 C6.72805118,10 0,16.5046005 0,24.5 C0,32.4953995 6.72805118,39 14.9970023,39 Z" id="Path" fill="#FD7E14"></path>
            <path d="M53.0029977,29 C61.2719488,29 68,22.4953995 68,14.5 C68,6.50460052 61.2719488,0 53.0029977,0 C43.1791308,0 35.8217118,11.3972664 34,14.5 C35.8217118,17.6027336 43.1791308,29 53.0029977,29 Z" id="Path" fill="#FFFFFF"></path>
        </g>
    </g>
</svg>