<?xml version="1.0" encoding="UTF-8"?>
<svg width="340px" height="104px" viewBox="0 0 340 104" version="1.1" xmlns="http://www.w3.org/2000/svg" xmlns:xlink="http://www.w3.org/1999/xlink">
    <!-- Generator: Sketch 57.1 (83088) - https://sketch.com -->
    <title>Amathon Logo Inversed</title>
    <desc>Created with Sketch.</desc>
    <g id="Amathon-Logo-Inversed" stroke="none" stroke-width="1" fill="none" fill-rule="evenodd">
        <rect fill="#000000" x="0" y="0" width="340" height="104"></rect>
        <text id="Amathon-2019" font-family="MaisonNeue-Bold, Maison Neue" font-size="32" font-weight="bold" fill="#FFFFFF">
            <tspan x="102" y="53">Amathon 2019</tspan>
        </text>
        <text id="Cloud-to-Infinity" font-family="MaisonNeue-Bold, Maison Neue" font-size="14" font-weight="bold" fill="#FFFFFF">
            <tspan x="102" y="74">Cloud to Infinity</tspan>
        </text>
        <g id="i-2" transform="translate(19.000000, 33.000000)" fill-rule="nonzero">
            <path d="M14.9970023,39 C24.8220987,39 32.1782882,27.6027336 34,24.5 C32.1782882,21.3972664 24.8208692,10 14.9970023,10 C6.72805118,10 0,16.5046005 0,24.5 C0,32.4953995 6.72805118,39 14.9970023,39 Z" id="Path" fill="#FD7E14"></path>
            <path d="M53.0029977,29 C61.2719488,29 68,22.4953995 68,14.5 C68,6.50460052 61.2719488,0 53.0029977,0 C43.1791308,0 35.8217118,11.3972664 34,14.5 C35.8217118,17.6027336 43.1791308,29 53.0029977,29 Z" id="Path" fill="#FFFFFF"></path>
        </g>
    </g>
</svg>